<mxfile host="app.diagrams.net" modified="2023-06-10T00:06:55.219Z" agent="Mozilla/5.0 (X11; Linux x86_64) AppleWebKit/537.36 (KHTML, like Gecko) Chrome/114.0.0.0 Safari/537.36" etag="MrR2x0b9B7o5umuhGeSq" version="21.3.7" type="device">
  <diagram name="Page-1" id="9uEI_o1jSFQKAdZgtg52">
    <mxGraphModel dx="1135" dy="645" grid="1" gridSize="10" guides="1" tooltips="1" connect="1" arrows="1" fold="1" page="1" pageScale="1" pageWidth="850" pageHeight="1100" math="0" shadow="0">
      <root>
        <mxCell id="0" />
        <mxCell id="1" parent="0" />
        <mxCell id="X7CRMqkfVBuR3V3xRcWx-6" value="&lt;b&gt;&lt;font style=&quot;font-size: 20px;&quot;&gt;Source&lt;/font&gt;&lt;/b&gt;" style="shape=ext;double=1;rounded=1;whiteSpace=wrap;html=1;" parent="1" vertex="1">
          <mxGeometry x="40" y="120" width="160" height="120" as="geometry" />
        </mxCell>
        <mxCell id="X7CRMqkfVBuR3V3xRcWx-27" value="&lt;font style=&quot;font-size: 25px;&quot;&gt;Interconnect&lt;br&gt;&lt;br&gt;&lt;br&gt;&lt;br&gt;&lt;br&gt;&lt;/font&gt;" style="rounded=1;whiteSpace=wrap;html=1;" parent="1" vertex="1">
          <mxGeometry x="280" y="100" width="320" height="160" as="geometry" />
        </mxCell>
        <mxCell id="Sb33ZBea8a0-s1IT7xl2-4" value="&lt;b&gt;&lt;font style=&quot;font-size: 20px;&quot;&gt;Destination&lt;/font&gt;&lt;/b&gt;" style="shape=ext;double=1;rounded=1;whiteSpace=wrap;html=1;" vertex="1" parent="1">
          <mxGeometry x="680" y="120" width="160" height="120" as="geometry" />
        </mxCell>
        <mxCell id="Sb33ZBea8a0-s1IT7xl2-5" value="&lt;h6&gt;&lt;font style=&quot;font-size: 8px;&quot;&gt;G&lt;br&gt;&lt;/font&gt;&lt;font style=&quot;font-size: 8px;&quot;&gt;E&lt;br&gt;&lt;/font&gt;&lt;font style=&quot;font-size: 8px;&quot;&gt;N&lt;/font&gt;&lt;/h6&gt;" style="rounded=0;whiteSpace=wrap;html=1;fillColor=#dae8fc;strokeColor=#6c8ebf;" vertex="1" parent="1">
          <mxGeometry x="190" y="180" width="10" height="40" as="geometry" />
        </mxCell>
        <mxCell id="Sb33ZBea8a0-s1IT7xl2-11" value="" style="endArrow=classic;html=1;rounded=0;strokeWidth=4;" edge="1" parent="1">
          <mxGeometry relative="1" as="geometry">
            <mxPoint x="200" y="160" as="sourcePoint" />
            <mxPoint x="280" y="160" as="targetPoint" />
          </mxGeometry>
        </mxCell>
        <mxCell id="Sb33ZBea8a0-s1IT7xl2-12" value="&amp;nbsp;AMBA&amp;nbsp;" style="edgeLabel;resizable=0;html=1;align=center;verticalAlign=middle;" connectable="0" vertex="1" parent="Sb33ZBea8a0-s1IT7xl2-11">
          <mxGeometry relative="1" as="geometry" />
        </mxCell>
        <mxCell id="Sb33ZBea8a0-s1IT7xl2-13" value="" style="endArrow=classic;html=1;rounded=0;strokeWidth=1;" edge="1" parent="1">
          <mxGeometry relative="1" as="geometry">
            <mxPoint x="200" y="199.76" as="sourcePoint" />
            <mxPoint x="280" y="199.76" as="targetPoint" />
          </mxGeometry>
        </mxCell>
        <mxCell id="Sb33ZBea8a0-s1IT7xl2-14" value="&amp;nbsp;Parity&amp;nbsp;" style="edgeLabel;resizable=0;html=1;align=center;verticalAlign=middle;" connectable="0" vertex="1" parent="Sb33ZBea8a0-s1IT7xl2-13">
          <mxGeometry relative="1" as="geometry" />
        </mxCell>
        <mxCell id="Sb33ZBea8a0-s1IT7xl2-15" value="" style="endArrow=classic;html=1;rounded=0;strokeWidth=1;" edge="1" parent="1">
          <mxGeometry relative="1" as="geometry">
            <mxPoint x="600" y="199.76" as="sourcePoint" />
            <mxPoint x="680" y="199.76" as="targetPoint" />
          </mxGeometry>
        </mxCell>
        <mxCell id="Sb33ZBea8a0-s1IT7xl2-16" value="&amp;nbsp;Parity&amp;nbsp;" style="edgeLabel;resizable=0;html=1;align=center;verticalAlign=middle;" connectable="0" vertex="1" parent="Sb33ZBea8a0-s1IT7xl2-15">
          <mxGeometry relative="1" as="geometry" />
        </mxCell>
        <mxCell id="Sb33ZBea8a0-s1IT7xl2-17" value="" style="endArrow=classic;html=1;rounded=0;strokeWidth=4;" edge="1" parent="1">
          <mxGeometry relative="1" as="geometry">
            <mxPoint x="600" y="160" as="sourcePoint" />
            <mxPoint x="680" y="160" as="targetPoint" />
          </mxGeometry>
        </mxCell>
        <mxCell id="Sb33ZBea8a0-s1IT7xl2-18" value="&amp;nbsp;AMBA&amp;nbsp;" style="edgeLabel;resizable=0;html=1;align=center;verticalAlign=middle;" connectable="0" vertex="1" parent="Sb33ZBea8a0-s1IT7xl2-17">
          <mxGeometry relative="1" as="geometry" />
        </mxCell>
        <mxCell id="Sb33ZBea8a0-s1IT7xl2-21" value="" style="endArrow=classic;html=1;rounded=0;exitX=1;exitY=0.5;exitDx=0;exitDy=0;entryX=0;entryY=0.5;entryDx=0;entryDy=0;" edge="1" parent="1" target="Sb33ZBea8a0-s1IT7xl2-24">
          <mxGeometry width="50" height="50" relative="1" as="geometry">
            <mxPoint x="300" y="200" as="sourcePoint" />
            <mxPoint x="580" y="200" as="targetPoint" />
          </mxGeometry>
        </mxCell>
        <mxCell id="Sb33ZBea8a0-s1IT7xl2-20" value="internal&lt;br&gt;protection" style="rounded=0;whiteSpace=wrap;html=1;" vertex="1" parent="1">
          <mxGeometry x="410" y="180" width="60" height="40" as="geometry" />
        </mxCell>
        <mxCell id="Sb33ZBea8a0-s1IT7xl2-22" value="&lt;h6 style=&quot;font-size: 8px;&quot;&gt;C&lt;br&gt;H&lt;br&gt;K&lt;/h6&gt;" style="rounded=0;whiteSpace=wrap;html=1;fillColor=#d5e8d4;strokeColor=#82b366;" vertex="1" parent="1">
          <mxGeometry x="280" y="180" width="10" height="40" as="geometry" />
        </mxCell>
        <mxCell id="Sb33ZBea8a0-s1IT7xl2-23" value="&lt;h6&gt;&lt;font style=&quot;font-size: 8px;&quot;&gt;G&lt;br&gt;&lt;/font&gt;&lt;font style=&quot;font-size: 8px;&quot;&gt;E&lt;br&gt;&lt;/font&gt;&lt;font style=&quot;font-size: 8px;&quot;&gt;N&lt;/font&gt;&lt;/h6&gt;" style="rounded=0;whiteSpace=wrap;html=1;fillColor=#dae8fc;strokeColor=#6c8ebf;" vertex="1" parent="1">
          <mxGeometry x="290" y="180" width="10" height="40" as="geometry" />
        </mxCell>
        <mxCell id="Sb33ZBea8a0-s1IT7xl2-24" value="&lt;h6 style=&quot;font-size: 8px;&quot;&gt;C&lt;br&gt;H&lt;br&gt;K&lt;/h6&gt;" style="rounded=0;whiteSpace=wrap;html=1;fillColor=#d5e8d4;strokeColor=#82b366;" vertex="1" parent="1">
          <mxGeometry x="580" y="180" width="10" height="40" as="geometry" />
        </mxCell>
        <mxCell id="Sb33ZBea8a0-s1IT7xl2-25" value="&lt;h6&gt;&lt;font style=&quot;font-size: 8px;&quot;&gt;G&lt;br&gt;&lt;/font&gt;&lt;font style=&quot;font-size: 8px;&quot;&gt;E&lt;br&gt;&lt;/font&gt;&lt;font style=&quot;font-size: 8px;&quot;&gt;N&lt;/font&gt;&lt;/h6&gt;" style="rounded=0;whiteSpace=wrap;html=1;fillColor=#dae8fc;strokeColor=#6c8ebf;" vertex="1" parent="1">
          <mxGeometry x="590" y="180" width="10" height="40" as="geometry" />
        </mxCell>
        <mxCell id="Sb33ZBea8a0-s1IT7xl2-26" value="&lt;h6 style=&quot;font-size: 8px;&quot;&gt;C&lt;br&gt;H&lt;br&gt;K&lt;/h6&gt;" style="rounded=0;whiteSpace=wrap;html=1;fillColor=#d5e8d4;strokeColor=#82b366;" vertex="1" parent="1">
          <mxGeometry x="680" y="180" width="10" height="40" as="geometry" />
        </mxCell>
        <mxCell id="Sb33ZBea8a0-s1IT7xl2-27" value="" style="shape=curlyBracket;whiteSpace=wrap;html=1;rounded=1;labelPosition=left;verticalLabelPosition=middle;align=right;verticalAlign=middle;rotation=-90;" vertex="1" parent="1">
          <mxGeometry x="230" y="230" width="20" height="100" as="geometry" />
        </mxCell>
        <mxCell id="Sb33ZBea8a0-s1IT7xl2-28" value="" style="shape=curlyBracket;whiteSpace=wrap;html=1;rounded=1;labelPosition=left;verticalLabelPosition=middle;align=right;verticalAlign=middle;rotation=-90;" vertex="1" parent="1">
          <mxGeometry x="630" y="230" width="20" height="100" as="geometry" />
        </mxCell>
        <mxCell id="Sb33ZBea8a0-s1IT7xl2-29" value="" style="shape=curlyBracket;whiteSpace=wrap;html=1;rounded=1;flipH=1;labelPosition=right;verticalLabelPosition=middle;align=left;verticalAlign=middle;rotation=-90;" vertex="1" parent="1">
          <mxGeometry x="430" y="-80" width="20" height="340" as="geometry" />
        </mxCell>
        <mxCell id="Sb33ZBea8a0-s1IT7xl2-30" value="Long wires and routing logic" style="rounded=0;whiteSpace=wrap;html=1;strokeColor=none;fillColor=none;" vertex="1" parent="1">
          <mxGeometry x="280" y="60" width="320" height="20" as="geometry" />
        </mxCell>
        <mxCell id="Sb33ZBea8a0-s1IT7xl2-31" value="Short wires" style="rounded=0;whiteSpace=wrap;html=1;strokeColor=none;fillColor=none;" vertex="1" parent="1">
          <mxGeometry x="190" y="290" width="100" height="20" as="geometry" />
        </mxCell>
        <mxCell id="Sb33ZBea8a0-s1IT7xl2-32" value="Short wires" style="rounded=0;whiteSpace=wrap;html=1;strokeColor=none;fillColor=none;" vertex="1" parent="1">
          <mxGeometry x="590" y="290" width="100" height="20" as="geometry" />
        </mxCell>
      </root>
    </mxGraphModel>
  </diagram>
</mxfile>
